<?xml version="1.0" encoding="UTF-8" standalone="no"?>
<!-- Created with Inkscape (http://www.inkscape.org/) -->

<svg
   xmlns:dc="http://purl.org/dc/elements/1.1/"
   xmlns:cc="http://creativecommons.org/ns#"
   xmlns:rdf="http://www.w3.org/1999/02/22-rdf-syntax-ns#"
   xmlns:svg="http://www.w3.org/2000/svg"
   xmlns="http://www.w3.org/2000/svg"
   xmlns:sodipodi="http://sodipodi.sourceforge.net/DTD/sodipodi-0.dtd"
   xmlns:inkscape="http://www.inkscape.org/namespaces/inkscape"
   width="210mm"
   height="297mm"
   viewBox="0 0 744.09448819 1052.3622047"
   id="svg2"
   version="1.1"
   inkscape:version="0.91 r13725"
   sodipodi:docname="Downscaling.svg">
  <defs
     id="defs4">
    <clipPath
       id="clipPath3729"
       clipPathUnits="userSpaceOnUse">
      <path
         style="clip-rule:evenodd"
         inkscape:connector-curvature="0"
         id="path3731"
         d="M 0,467.26299 0,0.05318 l 639.92126,0 0,467.20981 -639.92126,0 z" />
    </clipPath>
  </defs>
  <sodipodi:namedview
     id="base"
     pagecolor="#ffffff"
     bordercolor="#666666"
     borderopacity="1.0"
     inkscape:pageopacity="0.0"
     inkscape:pageshadow="2"
     inkscape:zoom="0.35355339"
     inkscape:cx="-943.69352"
     inkscape:cy="491.34738"
     inkscape:document-units="px"
     inkscape:current-layer="layer1"
     showgrid="false"
     inkscape:window-width="1366"
     inkscape:window-height="768"
     inkscape:window-x="0"
     inkscape:window-y="0"
     inkscape:window-maximized="1" />
  <metadata
     id="metadata7">
    <rdf:RDF>
      <cc:Work
         rdf:about="">
        <dc:format>image/svg+xml</dc:format>
        <dc:type
           rdf:resource="http://purl.org/dc/dcmitype/StillImage" />
        <dc:title></dc:title>
      </cc:Work>
    </rdf:RDF>
  </metadata>
  <g
     inkscape:label="Layer 1"
     inkscape:groupmode="layer"
     id="layer1">
    <rect
       style="opacity:0.98000004;fill:#008080;fill-opacity:1;fill-rule:nonzero;stroke:#1a1a1a;stroke-width:1.95535958;stroke-linecap:round;stroke-linejoin:round;stroke-miterlimit:10;stroke-dasharray:none;stroke-dashoffset:0;stroke-opacity:1"
       id="rect3767"
       width="748.34064"
       height="747.75372"
       x="-1088.7238"
       y="151.98073" />
    <path
       d="m -1605.2104,753.81636 -1.9502,-0.29995 -5.8508,-4.04938 -1.2001,-3.44949 -5.8508,-1.49978 -4.0505,2.99955 -8.7011,-1.04983 -0.9001,-2.84958 -0.9001,-1.64975 -2.2503,-2.24966 -2.8504,0.14997 -1.6502,-0.14997 -1.5002,-1.49978 -1.5002,-0.74988 -1.5002,-0.74989 -2.4003,-0.74989 -4.3505,1.49978 -1.5002,0 -7.651,1.04983 -4.0505,-4.34935 -5.7007,-1.34979 -2.4003,1.64976 -3.3004,0 -5.1007,-5.24922 -3.0004,-1.94971 -4.6506,-1.9497 -1.3501,-1.49978 -8.2511,0.14998 -3.0004,-1.94971 -4.8006,-1.9497 -1.5002,-0.74989 -2.2502,-0.74989 -2.2503,-3.74944 -2.2503,-3.89941 -1.5002,-3.74944 -1.6502,-4.0494 0.15,-5.84911 3.0004,-4.49932 0,-2.6996 -4.8006,1.19982 -3.0004,0 -4.3506,-2.24966 -1.5001,-0.74989 -0.9002,-0.89986 -1.5002,-4.94926 -3.7504,-1.79973 -3.6005,-1.79974 1.3502,-2.69958 0.7501,-2.39964 2.2503,-2.99955 0.7501,-2.09969 -8.7011,-1.19982 -1.8003,-1.9497 -1.6502,-0.74989 -1.5002,-0.74989 -3.9005,-1.64975 -8.101,0.14998 -0.7501,-0.74989 -3.9005,-1.64975 -1.5002,-1.49977 -5.1006,0.14997 -8.5511,-1.19982 0,-2.69959 0,-0.74989 0.9001,-4.49932 -2.8504,-1.3498 1.9503,-3.89942 0.7501,-4.19937 -0.15,-7.34889 4.0505,0 1.3502,1.64975 0.9001,-0.14997 4.9506,-1.64975 1.8002,0.89986 3.3004,1.19981 4.8007,-2.54961 1.8002,-2.84958 -2.4003,-3.44947 -1.5002,-1.3498 -0.6001,-8.39874 -1.6502,-2.24966 -0.7501,-1.49978 3.1504,-1.49977 3.6005,-2.84958 1.0501,-7.3489 1.5002,-3.14952 -1.0501,-2.09968 1.0501,-3.44949 3.4504,-1.04983 1.6502,-4.34935 0.7501,-1.49978 0.7501,-1.64975 -3.0004,-2.99955 -0.7501,-3.74943 2.2503,-2.09969 4.6506,-0.89986 1.6502,-0.89987 1.3502,-5.24921 3.3004,-3.14952 -3.9005,-5.09924 2.8504,-3.74944 0,-1.49977 1.5002,-2.99955 3.9005,-0.89987 1.5002,-1.49977 2.2503,0 3.0003,-1.49978 2.1003,-1.04983 0.9001,-1.94972 1.5002,-2.99955 0.7501,-6.89896 -3.0004,-1.49977 -3.0004,0 -1.5002,-1.49978 -4.3505,-1.49977 -5.5507,-6.89897 -1.5002,-0.74988 -4.5006,-2.99955 -3.1504,-0.74989 -3.0004,-1.49978 -3.0003,-0.74988 -5.7008,-2.54962 -3.7504,1.34979 -5.8508,-4.04939 -6.7508,-0.89986 -1.5002,-0.74989 -5.8508,-1.94971 -0.9001,-1.79972 -1.0501,-1.94972 -2.8504,1.94972 -2.2503,0.74988 -4.5005,-2.24966 -6.3008,-0.89986 -3.1504,0.14997 -2.7004,0 -1.8002,1.79973 -4.3506,-1.04984 -1.5001,0.74989 -4.6506,0.89986 -1.3502,1.3498 -0.9001,0.74989 -3.7505,0 -3.4504,-1.79973 -1.3502,-2.6996 -2.7004,1.49978 -4.5005,0.74989 -1.5002,0.74988 -4.6506,0.74989 -3.7505,1.49978 -1.5002,-1.49978 -2.7003,-0.89986 -5.7007,0.14997 -1.5002,0 -1.5002,0.74989 -1.8002,0.89986 -5.1007,-0.89986 -4.3505,0 -1.6503,-0.74989 -4.5005,-0.74988 -2.2503,-1.49978 -2.4003,0 -1.5002,2.99955 -0.7501,0.74989 -1.5002,1.49977 -1.5002,-1.49977 -3.4504,-1.19983 -1.8003,-1.79972 -1.9502,-0.74989 -1.2002,2.24966 -2.4003,0 -4.3505,-2.99955 -3.9005,-1.04983 -2.1003,-4.19938 -5.1006,-6.29905 2.7003,-3.59946 2.2503,-3.89941 1.5002,-2.24967 2.2503,-4.49932 3.9005,-4.6493 1.5002,-2.99955 0.7501,-1.49978 0.7501,-2.39963 4.0505,-3.89942 -1.8003,-3.59946 1.2002,-1.04984 1.0501,-3.59946 -5.2506,-2.09969 -2.2503,-1.49977 -3.0004,-1.04984 1.5002,-4.34935 3.0004,-1.49977 2.7003,-4.19938 -1.2001,-4.94925 -1.5002,-1.49977 -0.7501,-1.49978 -2.2503,-3.2995 3.0004,-5.69915 0.7501,-7.64885 1.5002,-0.74989 0,-1.49977 2.2502,-0.74989 2.7004,-0.89986 1.9502,-2.99955 1.5002,0.89986 2.7004,0.59991 1.0501,-5.24921 0.7501,-0.74989 0.9001,-0.89986 1.3502,-2.84957 4.8006,0 1.9502,2.24966 3.4505,2.24966 9.0011,1.3498 2.1003,-2.09969 9.4512,0.74989 1.9502,0 1.5002,-1.49977 1.9503,-0.89987 2.5503,-4.19937 6.1508,-1.04984 -0.15,-5.9991 2.1002,-1.94971 -3.4504,-1.04984 -2.5503,-1.19981 1.8002,-3.44949 -0.15,-2.54961 0.15,-5.84913 1.5002,-1.3498 0.7501,-1.19981 -2.4003,-3.44949 -0.9001,-2.84957 4.6505,-1.49978 1.6503,-0.89986 2.2502,-0.74989 1.5002,-1.49977 0,-3.44948 -2.2503,-3.44949 0,-3.14952 6.9009,-2.09969 6.6009,1.64975 0.9001,-0.89986 3.4504,-2.24966 1.9503,0 2.7003,0 1.5002,4.34935 1.8002,0.89986 1.9503,0 1.0501,0 1.5002,-0.74989 3.1504,-1.49977 2.1003,2.24966 1.6502,0 1.5002,0.74989 3.3004,1.64975 4.6506,-0.89987 7.801,0.14998 1.6502,-0.89986 2.2503,2.39963 4.8006,-0.14997 2.8503,-1.49978 1.8003,-0.74988 2.4003,3.74943 3.4504,0.89987 3.7505,2.99955 1.6502,0 3.0004,-1.64975 1.3501,-1.3498 4.6506,-0.74989 1.5002,-0.89986 3.6005,0.14997 0.9001,2.99955 2.1003,1.04985 2.4003,-2.54962 3.6004,-2.39964 4.0505,0.14997 3.0004,-2.39963 2.2503,-0.74989 2.4003,-0.74989 0.7501,0 1.5002,-0.74989 2.2503,0 0.9001,-0.89986 1.8002,-3.59946 3.3004,0 0.7501,-0.74989 1.6502,-0.74989 1.5002,0 1.5002,0 2.2503,0 2.2503,0 1.5002,0 2.5503,-0.89986 5.8508,0.14998 4.2005,-0.14998 1.9502,0.14998 1.3502,1.49977 2.4003,1.49978 0.7501,2.99955 7.801,1.79972 2.4003,-1.19981 3.1504,-4.34935 4.6506,0 0.9001,3.74944 0.9001,0.89986 4.5006,2.24966 2.8504,2.84958 1.6502,0.89986 0.7501,0.74989 2.2502,0.74988 1.2002,1.04985 1.2002,1.19982 3.1504,1.49977 5.1006,0 1.5002,1.49978 3.0004,0 1.2001,0 1.0502,2.24966 1.6502,0.74989 0.7501,0.89986 -0.1501,7.3489 1.2002,1.19981 1.2001,1.19983 5.2507,2.99955 2.4003,-2.39964 2.8504,0.89986 2.4003,0.74989 4.0505,3.14952 -1.5002,3.14953 2.7004,1.3498 1.9502,3.74944 1.8002,0 0.7501,2.24966 3.9005,0.74989 0.7501,0.89986 0,5.54916 0,1.19983 3.0004,1.49977 0.9001,0.89986 4.5006,-0.14997 -0.15,-6.74899 1.8002,-2.54961 -1.2002,-4.6493 1.0502,-1.94971 -0.15,-3.59947 1.0501,-4.04938 1.3502,0 1.5001,0 2.2503,-2.24967 3.0004,-0.74988 0.9001,-0.74989 3.1504,-1.64975 4.5006,-1.3498 1.5002,0 2.8504,1.49977 1.9502,0.74989 1.0501,-2.24966 1.6502,-0.74989 0.7501,-3.89941 1.8003,-1.64975 -2.7004,-1.3498 -1.5002,-0.74989 4.6506,-1.49977 1.3502,-2.69959 0.9001,-5.69915 1.6502,-1.49978 2.1003,0 2.1003,-1.04983 1.2001,-7.49888 1.3502,-1.19982 1.0501,-1.19982 2.7004,-2.54962 0.9001,-2.84958 -0.9001,-2.54961 3.0003,-2.99955 0.7501,-3.14952 1.0502,-1.94972 -3.1504,-2.09967 1.3501,-2.6996 0,-4.19936 -2.2503,-1.04985 -1.5001,-6.89897 -1.6503,-5.69913 0.9002,-3.74944 5.2506,-3.44949 0.7501,-1.49977 0.9001,-1.64975 5.1007,-2.39964 3.1504,1.04984 2.2503,-0.14998 0.7501,5.39919 -3.4505,1.79972 -1.0501,1.64977 2.5503,3.74943 2.7004,-1.94971 1.5002,-0.59991 1.5001,-0.89986 2.1003,4.19937 -1.3502,1.19981 0.1501,2.99955 5.1006,0 2.2503,1.04985 6.0008,-2.09968 1.8002,2.09968 -3.6005,2.24965 2.1003,1.94972 1.5002,2.39963 4.6506,4.49933 3.6004,-1.9497 5.8508,1.49977 1.0501,-1.04985 1.6502,-0.89986 3.3004,-3.2995 -2.7003,-2.6996 -0.7501,-0.74989 0,-2.24966 1.5002,-1.49977 0,-3.14953 9.4512,0.14998 1.2001,-2.24967 2.2503,-1.49977 1.0502,-3.14953 3.3004,0 0.9001,3.14953 -1.5002,4.49932 0,2.6996 4.2005,-2.09968 2.7004,0.89986 3.7505,0.74989 2.1002,1.04985 1.2002,2.54961 2.1002,0.89986 1.3502,-1.49977 2.4003,-0.74989 0.7501,-0.89986 1.5002,-2.84958 1.5002,-1.49977 1.0501,-2.39964 1.8003,-3.14953 2.4003,1.79973 3.1504,0.59991 2.2502,1.64975 1.5002,0.74989 3.0004,-4.6493 1.9503,-1.79973 1.0501,-1.19982 5.2507,-4.19936 2.4003,-1.04985 3.4504,-2.54962 1.2002,-3.74943 1.5002,-1.3498 3.0003,1.49977 0.7501,-1.49977 1.8003,-2.69959 -3.1504,-3.14954 3.0003,-4.94925 1.3502,-2.84957 1.9503,-1.9497 -3.4505,-3.29952 1.5002,-3.89941 0.7501,-4.49932 3.1504,-1.04984 1.3502,-2.6996 2.4003,-2.99955 0.6001,-2.39964 0.9001,-1.49977 0.7501,-1.49978 1.6502,-0.74988 2.8503,-2.99955 3.0004,-0.74989 1.5002,-0.74989 3.4504,-0.74989 1.2002,2.39964 0,3.74944 1.5002,1.3498 3.3004,-3.44948 3.4504,-3.14954 1.6503,-2.54961 2.1002,-1.9497 5.4007,-1.04985 0.7501,1.64975 1.3502,2.39964 1.9502,9.89852 1.6502,1.64975 2.7004,-1.94971 1.5002,0.14998 1.5002,-0.14998 0.7501,0 0,4.6493 0,2.99955 2.4003,2.24966 1.3501,0 1.0502,3.14953 2.8503,3.74944 -0.15,2.54962 0.15,2.54961 5.2507,-1.3498 3.1504,-6.29905 -0.15,-4.04938 5.4007,-1.79974 1.5001,-0.74989 3.0004,-0.74989 0.7501,-0.74988 3.0004,0 1.5002,-1.49978 3.1504,-0.74989 0.6001,-2.69958 -4.9507,-2.54963 -2.5503,-1.64975 1.5002,-1.49977 0.7501,-0.74989 4.6506,-0.89986 3.3004,-4.94927 3.0004,-1.49976 1.5002,-5.84912 3.4504,-1.19983 0.7501,-0.74989 4.0505,-0.74988 2.4003,0 1.9503,-2.99955 1.2001,-1.19982 1.0502,1.19982 3.1504,1.49977 -0.9001,1.49978 -1.5002,4.49932 -0.7501,1.49978 1.0501,2.99955 -3.3004,3.14952 -0.7501,2.24966 -0.7501,1.49978 0,2.6996 4.5006,1.04984 -0.7501,2.24966 -0.7501,3.14952 -2.2503,0.74989 -1.0501,2.09969 -5.1007,3.74944 1.9503,2.09968 -1.0502,1.04984 -2.4003,3.14953 -3.6004,2.39963 3.7504,3.59947 -0.15,3.74943 5.8508,2.84958 -1.3502,2.54961 0.15,2.39964 5.7007,-0.14998 1.8003,0 7.3509,-8.24876 4.8006,-0.89986 2.2503,-0.74989 0.7501,0 2.4003,0 2.1003,-2.24966 2.5503,-0.74989 5.7007,0.14998 3.0004,-1.49978 5.7007,-2.39964 2.1003,0 1.6502,0 3.4504,-1.79972 7.0509,-7.3489 1.6502,0 -0.15,3.89941 -1.9502,3.89941 1.6502,4.94927 1.8002,0.89986 5.4007,4.49932 0,1.49978 0.9001,2.6996 2.1003,4.19936 0,3.74944 1.0501,2.24966 2.7003,-1.49977 0.7501,0 0.7501,0 1.2002,1.19982 1.6502,1.49978 5.5507,-5.69915 3.7505,-3.74944 0.7501,-0.74989 3.3004,-0.74989 -1.5002,4.34935 1.6502,3.14953 -1.6502,3.44949 3.6005,1.19981 0,3.14952 -6.0008,2.39965 -0.9001,4.19937 5.4007,0.74988 1.5002,3.14953 -1.6503,2.99955 -5.1006,2.54962 -0.9001,4.19937 -8.4011,1.64975 0.15,-2.69959 0,-1.19983 -6.4508,0 -1.2001,0 -0.9001,0 -2.8504,1.64975 5.5507,2.6996 -1.8002,1.64975 -1.2002,2.6996 -4.0505,1.9497 -0.7501,2.24967 -3.0004,4.34935 -5.2506,1.3498 1.3501,2.69958 0,4.04939 -6.9008,2.24966 -4.5006,-1.49977 0.15,4.94926 -1.6502,2.39964 -2.1003,3.14952 2.1003,8.24877 0.7501,3.14952 0,1.3498 0,0.74989 0,1.19982 -5.4007,1.34979 0.15,5.3992 0,1.19981 2.4003,3.59947 -1.8002,3.2995 -3.0004,1.3498 -5.4007,-1.79973 -2.1002,1.19981 -2.2503,4.49933 3.3004,9.59856 -1.0501,0.89986 0,3.14953 -2.2503,0 -1.6502,0 -2.1003,2.24966 -6.1508,1.49978 -1.6502,1.64975 0.15,6.74898 -1.6502,0.74989 -2.5503,-0.14997 -1.9503,0.14997 0.1501,2.24966 -3.1504,2.24967 -3.0004,0 0,-2.39964 2.8503,-5.54916 -1.6502,-3.14954 -1.9502,1.94971 -1.6502,0.89986 -3.6005,-0.14997 -1.6502,0 -2.7003,2.84957 -2.5504,-1.3498 -2.8503,-0.89986 -2.5503,1.79973 -1.5002,1.49977 -3.3004,0 -1.2002,-2.39964 -1.5002,-0.74988 -1.9502,-0.89987 -1.5002,1.3498 -1.0502,1.04984 -1.6502,2.54961 -1.5002,1.3498 -3.3004,-1.79972 -3.4504,1.79972 -3.0004,-2.39963 -3.1504,0.14997 -3.7505,-1.9497 -2.4003,1.19981 -1.3502,1.49978 -5.1006,1.64975 -1.3502,2.84957 -2.7003,0 -2.2503,-2.24966 -5.4007,-1.49977 0.15,4.49932 -2.1002,3.14953 -4.8006,-0.14998 -4.2006,2.99955 -1.0501,-2.24966 -3.4504,-1.49978 -3.7505,2.54962 -1.2002,3.59946 -3.7505,0 -0.75,2.99955 -2.4004,1.49977 -1.8002,0 -1.2001,0 -2.2503,4.49933 -3.0004,0.74989 0,2.39963 0,0.74989 -4.5006,1.49978 -0.7501,0.74988 -1.6502,0.74989 0.15,1.79973 3.7505,1.19982 1.5002,1.49978 2.2503,0.74988 0.7501,5.84913 2.2503,1.04984 1.5002,0.74988 -1.5002,2.99955 -0.7501,1.49978 -1.5002,1.49977 0,4.49933 -1.5002,2.39964 -0.7501,1.49977 2.2503,2.24966 1.5002,1.49978 0.9001,0.74989 -0.15,3.14952 0,1.49978 -2.2503,1.04983 0.15,5.9991 -0.9001,6.74899 0,3.74944 2.4003,2.24966 9.3012,2.99955 -1.3502,6.29905 -3.4504,1.19983 -1.6502,0.74988 0.15,1.49978 -0.9001,1.64975 -4.5006,-0.14998 -1.8002,0 -1.2002,3.89942 -1.5002,1.3498 0.9001,2.84957 2.2503,1.04984 3.0004,3.14952 1.5002,2.99955 -0.15,2.99955 -3.0004,1.49978 -1.5002,0.74989 -3.1504,1.49977 0.15,8.09879 -4.6506,1.49977 0.1501,5.24922 2.7003,6.89896 2.5503,2.39964 -0.15,3.89941 2.7003,4.19936 4.2006,1.04985 -0.7501,1.49978 0.15,2.39963 1.3502,1.49978 0.7501,2.24966 1.5002,2.84958 5.4006,3.89941 3.1504,3.2995 8.4011,-1.04984 1.3502,-1.3498 3.9005,-2.39964 2.5503,-2.6996 1.8002,1.94972 2.5504,1.64975 4.3505,-0.14998 1.5002,-1.49977 0.7501,2.39963 1.5002,1.3498 0.7501,2.39964 3.3004,4.79928 7.3509,-1.49978 0,1.19983 2.1003,3.14952 0.9001,3.74944 0.9001,2.24966 0.6001,2.24966 1.3502,3.89942 -3.6005,-0.14998 -2.2503,-2.24966 -6.9008,0.89986 -1.3502,1.3498 -3.1504,0.74989 -1.3502,1.49977 -3.1504,1.49978 -0.7501,0.89986 -1.6502,0.74989 -2.4003,-0.14998 -1.2002,3.89942 -0.9001,0.89986 -5.2506,-0.14998 -0.7501,2.24967 -1.5002,2.99955 2.2503,1.49977 1.3501,1.49978 -1.8002,5.09922 -3.0004,2.99955 -1.8002,-2.69959 -2.4003,-0.74988 -2.2503,-1.49978 -3.0004,0 0,2.69959 0,1.3498 -6.9008,1.94971 -5.1007,0 -0.9001,0.89986 -1.5002,2.99955 -0.7501,0.74989 -2.7003,2.84958 -2.5504,7.64885 -3.9005,6.14907 -0.7501,1.64975 -5.2506,2.09969 -3.1504,3.14952 -3.0004,2.99955 -5.8507,-3.14952 -0.9002,0 -0.7501,-0.74989 -0.9001,-0.74989 -2.8503,1.49978 -2.7004,0 -3.4504,0.14997 -2.4003,-0.14997 -1.3502,-1.49978 -2.2503,-1.04985 -0.9001,-3.74943 -1.5002,-2.69959 -3.0004,1.49977 -1.8002,0.89987 -5.1006,-1.3498 -2.1003,-1.04984 -5.8507,-2.54961 -1.0502,-2.09969 -2.2503,-0.74989 -2.4003,-0.74989 -3.0004,-4.49932 -1.9502,-2.99955 -3.4504,0 -3.9005,4.19936 -6.3008,-1.34979 -7.0509,0.14998 -7.0509,-1.04985 -9.3012,3.74944 -1.2002,4.94926 1.6503,2.99955 -0.1501,7.19891 -3.7504,1.79974 -0.7501,1.3498 3.0003,1.04984 2.4003,1.19981 -0.15,5.3992 -3.6004,1.19981 2.2503,4.19938 -2.4003,1.64975 -0.7501,2.24966 -2.5504,6.29905 1.8003,3.44949 0.7501,4.79927 -2.2503,6.59901 0,0.74989 0,0.89986 -3.0004,1.49978 -1.0501,3.89941 2.8503,4.04939 -1.8002,2.54962 -1.5002,3.89942 -2.4003,-1.64975 -1.8002,0.14997 -1.9503,-0.14997 -1.5002,-1.49978 -1.9502,-0.89987 -3.4505,2.24966 1.3502,6.14909 -3.3004,1.04983 -0.9001,2.09969 -1.6502,2.39964 -3.7505,-0.14998 -3.0004,0.14998 -3.7505,-3.14953 -3.9005,1.9497 -9.6012,-1.34978 -4.2005,3.2995 -3.1504,-0.14998 -2.7004,0.14998 -1.9502,-2.09969 -3.7505,3.89941 -4.2005,1.3498 -3.9005,5.9991 0.15,7.49888 -1.5002,4.49932 -3.4504,0 -1.8002,3.74944 -1.6503,0.74989 -0.3,0.44992"
       style="fill:#ffffff;stroke:#1a1a1a;stroke-width:2;stroke-linecap:round;stroke-linejoin:round;stroke-miterlimit:10;stroke-dasharray:none;stroke-opacity:1"
       id="path3733"
       inkscape:connector-curvature="0" />
    <path
       d="m -770.01662,796.11074 -1.9503,-0.29995 -5.8507,-4.04938 -1.2002,-3.44949 -5.8507,-1.49978 -4.0505,2.99955 -8.7011,-1.04983 -0.9001,-2.84958 -0.9001,-1.64975 -2.2503,-2.24966 -2.8504,0.14997 -1.6502,-0.14997 -1.5002,-1.49978 -1.5002,-0.74988 -1.5002,-0.74989 -2.4003,-0.74989 -4.3505,1.49978 -1.5002,0 -7.651,1.04983 -4.0505,-4.34935 -5.7007,-1.34979 -2.4003,1.64976 -3.3005,0 -5.1006,-5.24922 -3.0004,-1.94971 -4.6506,-1.9497 -1.3502,-1.49978 -8.251,0.14998 -3.0004,-1.94971 -4.8006,-1.9497 -1.5002,-0.74989 -2.2503,-0.74989 -2.2503,-3.74944 -2.2502,-3.89941 -1.5002,-3.74944 -1.6502,-4.0494 0.15,-5.84911 3.0004,-4.49932 0,-2.6996 -4.8006,1.19982 -3.0004,0 -4.3506,-2.24966 -1.5002,-0.74989 -0.9001,-0.89986 -1.5002,-4.94926 -3.7505,-1.79973 -3.6004,-1.79974 1.3502,-2.69958 0.7501,-2.39964 2.2502,-2.99955 0.7501,-2.09969 -8.7011,-1.19982 -1.8002,-1.9497 -1.6502,-0.74989 -1.5002,-0.74989 -3.9005,-1.64975 -8.101,0.14998 -0.7501,-0.74989 -3.9005,-1.64975 -1.5002,-1.49977 -5.1006,0.14997 -8.5511,-1.19982 0,-2.69959 0,-0.74989 0.9001,-4.49932 -2.8504,-1.3498 1.9503,-3.89942 0.7501,-4.19937 -0.1501,-7.34889 4.0506,0 1.3501,1.64975 0.9001,-0.14997 4.9507,-1.64975 1.8002,0.89986 3.3004,1.19981 4.8006,-2.54961 1.8003,-2.84958 -2.4003,-3.44947 -1.5002,-1.3498 -0.6001,-8.39874 -1.6502,-2.24966 -0.7501,-1.49978 3.1504,-1.49977 3.6004,-2.84958 1.0502,-7.3489 1.5002,-3.14952 -1.0502,-2.09968 1.0502,-3.44949 3.4504,-1.04983 1.6502,-4.34935 0.7501,-1.49978 0.7501,-1.64975 -3.0004,-2.99955 -0.7501,-3.74943 2.2503,-2.09969 4.6506,-0.89986 1.6502,-0.89987 1.3502,-5.24921 3.3004,-3.14952 -3.9005,-5.09924 2.8504,-3.74944 0,-1.49977 1.5002,-2.99955 3.9005,-0.89987 1.5001,-1.49977 2.2503,0 3.0004,-1.49978 2.1003,-1.04983 0.9001,-1.94972 1.5002,-2.99955 0.7501,-6.89896 -3.0004,-1.49977 -3.0004,0 -1.5002,-1.49978 -4.3505,-1.49977 -5.5507,-6.89897 -1.5002,-0.74988 -4.5006,-2.99955 -3.1504,-0.74989 -3.0004,-1.49978 -3.0004,-0.74988 -5.7007,-2.54962 -3.7505,1.34979 -5.8507,-4.04939 -6.7509,-0.89986 -1.5001,-0.74989 -5.8508,-1.94971 -0.9001,-1.79972 -1.0501,-1.94972 -2.8504,1.94972 -2.2503,0.74988 -4.5006,-2.24966 -6.3008,-0.89986 -3.1504,0.14997 -2.7003,0 -1.8002,1.79973 -4.3506,-1.04984 -1.5002,0.74989 -4.6506,0.89986 -1.3501,1.3498 -0.9001,0.74989 -3.7505,0 -3.4505,-1.79973 -1.3501,-2.6996 -2.7004,1.49978 -4.50048,0.74989 -1.5002,0.74988 -4.6506,0.74989 -3.7505,1.49978 -1.5002,-1.49978 -2.7003,-0.89986 -5.7008,0.14997 -1.5002,0 -1.5001,0.74989 -1.8003,0.89986 -5.1006,-0.89986 -4.3506,0 -1.6502,-0.74989 -4.5006,-0.74988 -2.2502,-1.49978 -2.4003,0 -1.5002,2.99955 -0.7501,0.74989 -1.5002,1.49977 -1.5002,-1.49977 -3.4504,-1.19983 -1.8003,-1.79972 -1.9502,-0.74989 -1.2002,2.24966 -2.4003,0 -4.3505,-2.99955 -3.9005,-1.04983 -2.1003,-4.19938 -5.1006,-6.29905 2.7003,-3.59946 2.2503,-3.89941 1.5002,-2.24967 2.2503,-4.49932 3.9005,-4.6493 1.5001,-2.99955 0.7501,-1.49978 0.7501,-2.39963 4.0506,-3.89942 -1.8003,-3.59946 1.2002,-1.04984 1.0501,-3.59946 -5.2507,-2.09969 -2.2502,-1.49977 -3.0004,-1.04984 1.5002,-4.34935 3.0003,-1.49977 2.7004,-4.19938 -1.2002,-4.94925 -1.5002,-1.49977 -0.75,-1.49978 -2.2503,-3.2995 3.0003,-5.69915 0.7501,-7.64885 1.5002,-0.74989 0,-1.49977 2.2503,-0.74989 2.7004,-0.89986 1.9502,-2.99955 1.5002,0.89986 2.7003,0.59991 1.0502,-5.24921 0.7501,-0.74989 0.9001,-0.89986 1.3502,-2.84957 4.8006,0 1.9502,2.24966 3.4505,2.24966 9.0011,1.3498 2.1003,-2.09969 9.4512,0.74989 1.9502,0 1.5002,-1.49977 1.9502,-0.89987 2.5504,-4.19937 6.1508,-1.04984 -0.1501,-5.9991 2.10028,-1.94971 -3.45038,-1.04984 -2.5504,-1.19981 1.8003,-3.44949 -0.1501,-2.54961 0.1501,-5.84913 1.5002,-1.3498 0.7501,-1.19981 -2.4004,-3.44949 -0.9001,-2.84957 4.6506,-1.49978 1.65018,-0.89986 2.2503,-0.74989 1.5002,-1.49977 0,-3.44948 -2.2503,-3.44949 0,-3.14952 6.9009,-2.09969 6.6008,1.64975 0.9002,-0.89986 3.4504,-2.24966 1.9502,0 2.7004,0 1.5002,4.34935 1.8002,0.89986 1.9502,0 1.0502,0 1.5002,-0.74989 3.1504,-1.49977 2.1002,2.24966 1.6502,0 1.5002,0.74989 3.3005,1.64975 4.6505,-0.89987 7.801,0.14998 1.6502,-0.89986 2.2503,2.39963 4.8006,-0.14997 2.8504,-1.49978 1.8002,-0.74988 2.4003,3.74943 3.4505,0.89987 3.7505,2.99955 1.6502,0 3.0003,-1.64975 1.3502,-1.3498 4.6506,-0.74989 1.5002,-0.89986 3.6005,0.14997 0.9001,2.99955 2.1002,1.04985 2.4003,-2.54962 3.6005,-2.39964 4.0505,0.14997 3.0004,-2.39963 2.2503,-0.74989 2.4003,-0.74989 0.7501,0 1.5002,-0.74989 2.2503,0 0.9001,-0.89986 1.8002,-3.59946 3.3004,0 0.7501,-0.74989 1.6502,-0.74989 1.5002,0 1.5002,0 2.2503,0 2.2503,0 1.5002,0 2.5503,-0.89986 5.8507,0.14998 4.2006,-0.14998 1.9502,0.14998 1.3502,1.49977 2.4003,1.49978 0.7501,2.99955 7.801,1.79972 2.4003,-1.19981 3.1504,-4.34935 4.6506,0 0.9001,3.74944 0.9001,0.89986 4.5006,2.24966 2.8503,2.84958 1.6502,0.89986 0.7501,0.74989 2.2503,0.74988 1.2002,1.04985 1.2001,1.19982 3.1504,1.49977 5.1007,0 1.5002,1.49978 3.0003,0 1.2002,0 1.0501,2.24966 1.6502,0.74989 0.7501,0.89986 -0.15,7.3489 1.2002,1.19981 1.2001,1.19983 5.2507,2.99955 2.4003,-2.39964 2.8504,0.89986 2.4003,0.74989 4.0505,3.14952 -1.5002,3.14953 2.7003,1.3498 1.9503,3.74944 1.8002,0 0.7501,2.24966 3.90049,0.74989 0.7501,0.89986 0,5.54916 0,1.19983 3.00037,1.49977 0.90011,0.89986 4.50058,-0.14997 -0.15003,-6.74899 1.80024,-2.54961 -1.20015,-4.6493 1.05013,-1.94971 -0.15002,-3.59947 1.05013,-4.04938 1.35017,0 1.50019,0 2.25029,-2.24967 3.00039,-0.74988 0.90011,-0.74989 3.1504,-1.64975 4.50057,-1.3498 1.50019,0 2.85036,1.49977 1.95025,0.74989 1.05013,-2.24966 1.65021,-0.74989 0.7501,-3.89941 1.80023,-1.64975 -2.70035,-1.3498 -1.50019,-0.74989 4.65059,-1.49977 1.35017,-2.69959 0.90011,-5.69915 1.65022,-1.49978 2.10026,0 2.10027,-1.04983 1.20015,-7.49888 1.35018,-1.19982 1.05012,-1.19982 2.70035,-2.54962 0.90012,-2.84958 -0.90012,-2.54961 3.00038,-2.99955 0.7501,-3.14952 1.05014,-1.94972 -3.15042,-2.09967 1.35018,-2.6996 0,-4.19936 -2.25029,-1.04985 -1.50019,-6.89897 -1.65021,-5.69913 0.90011,-3.74944 5.25068,-3.44949 0.75009,-1.49977 0.90012,-1.64975 5.10064,-2.39964 3.1504,1.04984 2.25029,-0.14998 0.7501,5.39919 -3.45044,1.79972 -1.05014,1.64977 2.55033,3.74943 2.70035,-1.94971 1.50018,-0.59991 1.50019,-0.89986 2.10026,4.19937 -1.35016,1.19981 0.15001,2.99955 5.10065,0 2.25029,1.04985 6.00076,-2.09968 1.80023,2.09968 -3.60046,2.24965 2.10027,1.94972 1.50019,2.39963 4.65059,4.49933 3.60046,-1.9497 5.85074,1.49977 1.05013,-1.04985 1.65022,-0.89986 3.30041,-3.2995 -2.70034,-2.6996 -0.7501,-0.74989 0,-2.24966 1.50019,-1.49977 0,-3.14953 9.4512,0.14998 1.20016,-2.24967 2.25029,-1.49977 1.05012,-3.14953 3.30043,0 0.90011,3.14953 -1.50019,4.49932 0,2.6996 4.20053,-2.09968 2.70035,0.89986 3.75047,0.74989 2.10027,1.04985 1.20015,2.54961 2.10027,0.89986 1.35016,-1.49977 2.40032,-0.74989 0.75008,-0.89986 1.5002,-2.84958 1.50019,-1.49977 1.05014,-2.39964 1.80022,-3.14953 2.4003,1.79973 3.1504,0.59991 2.25029,1.64975 1.50019,0.74989 3.00039,-4.6493 1.95025,-1.79973 1.05012,-1.19982 5.25068,-4.19936 2.4003,-1.04985 3.45043,-2.54962 1.20015,-3.74943 1.5002,-1.3498 3.00038,1.49977 0.7501,-1.49977 1.80022,-2.69959 -3.1504,-3.14954 3.00038,-4.94925 1.35017,-2.84957 1.95025,-1.9497 -3.45043,-3.29952 1.50018,-3.89941 0.7501,-4.49932 3.1504,-1.04984 1.35017,-2.6996 2.40031,-2.99955 0.60007,-2.39964 0.90012,-1.49977 0.7501,-1.49978 1.6502,-0.74988 2.85036,-2.99955 3.00039,-0.74989 1.50018,-0.74989 3.45044,-0.74989 1.20015,2.39964 0,3.74944 1.5002,1.3498 3.30041,-3.44948 3.45044,-3.14954 1.65021,-2.54961 2.10027,-1.9497 5.40068,-1.04985 0.7501,1.64975 1.35017,2.39964 1.95025,9.89852 1.65021,1.64975 2.70034,-1.94971 1.5002,0.14998 1.50018,-0.14998 0.7501,0 0,4.6493 0,2.99955 2.4003,2.24966 1.35018,0 1.05012,3.14953 2.85037,3.74944 -0.15002,2.54962 0.15002,2.54961 5.25067,-1.3498 3.1504,-6.29905 -0.15002,-4.04938 5.40069,-1.79974 1.50018,-0.74989 3.00039,-0.74989 0.75009,-0.74988 3.00038,0 1.50019,-1.49978 3.1504,-0.74989 0.60008,-2.69958 -4.95063,-2.54963 -2.55032,-1.64975 1.50018,-1.49977 0.7501,-0.74989 4.65059,-0.89986 3.30043,-4.94927 3.00037,-1.49976 1.50019,-5.84912 3.45044,-1.19983 0.7501,-0.74989 4.05051,-0.74988 2.40031,0 1.95024,-2.99955 1.20016,-1.19982 1.05013,1.19982 3.1504,1.49977 -0.90011,1.49978 -1.50019,4.49932 -0.7501,1.49978 1.05014,2.99955 -3.30043,3.14952 -0.75009,2.24966 -0.7501,1.49978 0,2.6996 4.50058,1.04984 -0.7501,2.24966 -0.75009,3.14952 -2.25029,0.74989 -1.05013,2.09969 -5.10065,3.74944 1.95025,2.09968 -1.05014,1.04984 -2.4003,3.14953 -3.60046,2.39963 3.75048,3.59947 -0.15002,3.74943 5.85074,2.84958 -1.35017,2.54961 0.15002,2.39964 5.70072,-0.14998 1.80023,0 7.35093,-8.24876 4.80062,-0.89986 2.25028,-0.74989 0.75009,0 2.40031,0 2.10027,-2.24966 2.55032,-0.74989 5.70073,0.14998 3.00037,-1.49978 5.70073,-2.39964 2.10027,0 1.6502,0 3.45044,-1.79972 7.0509,-7.3489 1.65021,0 -0.15002,3.89941 -1.95025,3.89941 1.65021,4.94927 1.80024,0.89986 5.40067,4.49932 0,1.49978 0.90013,2.6996 2.10026,4.19936 0,3.74944 1.05014,2.24966 2.70033,-1.49977 0.7501,0 0.75009,0 1.20015,1.19982 1.65021,1.49978 5.55071,-5.69915 3.75048,-3.74944 0.75009,-0.74989 3.30042,-0.74989 -1.50019,4.34935 1.6502,3.14953 -1.6502,3.44949 3.60045,1.19981 0,3.14952 -6.00076,2.39965 -0.90011,4.19937 5.40069,0.74988 1.50018,3.14953 -1.65021,2.99955 -5.10064,2.54962 -0.90012,4.19937 -8.40106,1.64975 0.15002,-2.69959 0,-1.19983 -6.45082,0 -1.20015,0 -0.90012,0 -2.85036,1.64975 5.5507,2.6996 -1.80022,1.64975 -1.20015,2.6996 -4.05052,1.9497 -0.7501,2.24967 -3.00038,4.34935 -5.25067,1.3498 1.35018,2.69958 0,4.04939 -6.90088,2.24966 -4.50057,-1.49977 0.15002,4.94926 -1.65021,2.39964 -2.10027,3.14952 2.10027,8.24877 0.75009,3.14952 0,1.3498 0,0.74989 0,1.19982 -5.40068,1.34979 0.15002,5.3992 0,1.19981 2.4003,3.59947 -1.80023,3.2995 -3.00037,1.3498 -5.40069,-1.79973 -2.10028,1.19981 -2.25027,4.49933 3.30041,9.59856 -1.05014,0.89986 0,3.14953 -2.25027,0 -1.65021,0 -2.10028,2.24966 -6.15077,1.49978 -1.65022,1.64975 0.15003,6.74898 -1.65021,0.74989 -2.55033,-0.14997 -1.95025,0.14997 0.15003,2.24966 -3.1504,2.24967 -3.00039,0 0,-2.39964 2.85036,-5.54916 -1.6502,-3.14954 -1.95025,1.94971 -1.65021,0.89986 -3.60046,-0.14997 -1.6502,0 -2.70035,2.84957 -2.55033,-1.3498 -2.85036,-0.89986 -2.55033,1.79973 -1.50018,1.49977 -3.30042,0 -1.20016,-2.39964 -1.50019,-0.74988 -1.95025,-0.89987 -1.50018,1.3498 -1.05014,1.04984 -1.6502,2.54961 -1.5002,1.3498 -3.30041,-1.79972 -3.45044,1.79972 -3.00039,-2.39963 -3.1504,0.14997 -3.75047,-1.9497 -2.4003,1.19981 -1.35018,1.49978 -5.10065,1.64975 -1.35016,2.84957 -2.70035,0 -2.25029,-2.24966 -5.40067,-1.49977 0.15001,4.49932 -2.10026,3.14953 -4.80062,-0.14998 -4.20053,2.99955 -1.05013,-2.24966 -3.45044,-1.49978 -3.75048,2.54962 -1.20015,3.59946 -3.75048,0 -0.75009,2.99955 -2.40031,1.49977 -1.80022,0 -1.20015,0 -2.25029,4.49933 -3.00039,0.74989 0,2.39963 0,0.74989 -4.50056,1.49978 -0.7501,0.74988 -1.65021,0.74989 0.15002,1.79973 3.75048,1.19982 1.50018,1.49978 2.25029,0.74988 0.7501,5.84913 2.25028,1.04984 1.5002,0.74988 -1.5002,2.99955 -0.75009,1.49978 -1.50019,1.49977 0,4.49933 -1.5002,2.39964 -0.75009,1.49977 2.25029,2.24966 1.50019,1.49978 0.90011,0.74989 -0.15002,3.14952 0,1.49978 -2.25028,1.04983 0.15001,5.9991 -0.90011,6.74899 0,3.74944 2.4003,2.24966 9.30119,2.99955 -1.35018,6.29905 -3.45043,1.19983 -1.65022,0.74988 0.15003,1.49978 -0.90011,1.64975 -4.50058,-0.14998 -1.80022,0 -1.20017,3.89942 -1.50018,1.3498 0.90011,2.84957 2.25029,1.04984 3.00038,3.14952 1.50019,2.99955 -0.15002,2.99955 -3.00038,1.49978 -1.50019,0.74989 -3.1504,1.49977 0.15002,8.09879 -4.65059,1.49977 0.15002,5.24922 2.70034,6.89896 2.55033,2.39964 -0.15003,3.89941 2.70035,4.19936 4.20053,1.04985 -0.75009,1.49978 0.15001,2.39963 1.35018,1.49978 0.7501,2.24966 1.50018,2.84958 5.40069,3.89941 3.1504,3.2995 8.40106,-1.04984 1.35018,-1.3498 3.90049,-2.39964 2.55032,-2.6996 1.80024,1.94972 2.55032,1.64975 4.35055,-0.14998 1.50019,-1.49977 0.7501,2.39963 1.50019,1.3498 0.75009,2.39964 3.30042,4.79928 7.35094,-1.49978 0,1.19983 2.10026,3.14952 0.90011,3.74944 0.90012,2.24966 0.60007,2.24966 1.35018,3.89942 -3.60045,-0.14998 -2.25029,-2.24966 -6.90088,0.89986 -1.35017,1.3498 -3.1504,0.74989 -1.35018,1.49977 -3.1504,1.49978 -0.75008,0.89986 -1.65022,0.74989 -2.40031,-0.14998 -1.20015,3.89942 -0.90011,0.89986 -5.25066,-0.14998 -0.7501,2.24967 -1.50019,2.99955 2.25029,1.49977 1.35016,1.49978 -1.80023,5.09922 -3.00037,2.99955 -1.80024,-2.69959 -2.4003,-0.74988 -2.25029,-1.49978 -3.00037,0 0,2.69959 0,1.3498 -6.90088,1.94971 -5.10065,0 -0.90011,0.89986 -1.5002,2.99955 -0.75009,0.74989 -2.70035,2.84958 -2.55032,7.64885 -3.90049,6.14907 -0.7501,1.64975 -5.25066,2.09969 -3.1504,3.14952 -3.00039,2.99955 -5.85074,-3.14952 -0.90011,0 -0.7501,-0.74989 -0.90011,-0.74989 -2.85036,1.49978 -2.70034,0 -3.45044,0.14997 -2.40031,-0.14997 -1.35018,-1.49978 -2.25027,-1.04985 -0.90013,-3.74943 -1.50018,-2.69959 -3.00038,1.49977 -1.80024,0.89987 -5.10063,-1.3498 -2.10028,-1.04984 -5.85074,-2.54961 -1.05013,-2.09969 -2.25029,-0.74989 -2.4003,-0.74989 -3.00039,-4.49932 -1.95024,-2.99955 -3.45043,0 -3.9005,4.19936 -6.3008,-1.34979 -7.0509,0.14998 -7.05089,-1.04985 -9.30119,3.74944 -1.20015,4.94926 1.65021,2.99955 -0.15002,7.19891 -3.75048,1.79974 -0.75008,1.3498 3.00037,1.04984 2.4003,1.19981 -0.15001,5.3992 -3.60046,1.19981 2.25028,4.19938 -2.4003,1.64975 -0.7501,2.24966 -2.55032,6.29905 1.80024,3.44949 0.75008,4.79927 -2.25028,6.59901 0,0.74989 0,0.89986 -3.00038,1.49978 -1.05014,3.89941 2.85037,4.04939 -1.80023,2.54962 -1.50019,3.89942 -2.40031,-1.64975 -1.80022,0.14997 -1.95025,-0.14997 -1.50019,-1.49978 -1.95025,-0.89987 -3.45044,2.24966 1.35018,6.14909 -3.30043,1.04983 -0.90011,2.09969 -1.65021,2.39964 -3.75048,-0.14998 -3.00037,0.14998 -3.75048,-3.14953 -3.9005,1.9497 -9.60122,-1.34978 -4.20053,3.2995 -3.1504,-0.14998 -2.70035,0.14998 -1.95025,-2.09969 -3.75047,3.89941 -4.20053,1.3498 -3.9005,5.9991 0.15003,7.49888 -1.5002,4.49932 -3.45039,0 -1.8003,3.74944 -1.6502,0.74989 -0.3,0.44992"
       style="fill:#803300;stroke:#1a1a1a;stroke-width:2;stroke-linecap:round;stroke-linejoin:round;stroke-miterlimit:10;stroke-dasharray:none;stroke-opacity:1"
       id="path3733-0"
       inkscape:connector-curvature="0" />
    <text
       xml:space="preserve"
       style="font-style:normal;font-weight:normal;font-size:32.24549103px;line-height:125%;font-family:sans-serif;letter-spacing:0px;word-spacing:0px;fill:#000000;fill-opacity:1;stroke:none;stroke-width:1px;stroke-linecap:butt;stroke-linejoin:miter;stroke-opacity:1"
       x="-1601.6129"
       y="509.3042"
       id="text3851"
       sodipodi:linespacing="125%"><tspan
         sodipodi:role="line"
         id="tspan3853"
         x="-1601.6129"
         y="509.3042"
         style="font-size:64.49098206px">1</tspan></text>
    <g
       id="g3933"
       transform="translate(-14.142136,-19.79899)"
       style="fill:#008000">
      <g
         transform="matrix(1.0359703,0,0,1,38.661531,0)"
         id="g3910"
         style="fill:#008000">
        <path
           style="fill:#008000;fill-rule:evenodd;stroke:#000000;stroke-width:2.35431623;stroke-linecap:butt;stroke-linejoin:miter;stroke-miterlimit:4;stroke-dasharray:none;stroke-opacity:1"
           d="m -352.58822,170.65658 0,750"
           id="path3791"
           inkscape:connector-curvature="0" />
        <path
           inkscape:connector-curvature="0"
           id="path3793"
           d="m -496.91739,170.65658 0,750"
           style="fill:#008000;fill-rule:evenodd;stroke:#000000;stroke-width:2.35431623;stroke-linecap:butt;stroke-linejoin:miter;stroke-miterlimit:4;stroke-dasharray:none;stroke-opacity:1" />
        <path
           style="fill:#008000;fill-rule:evenodd;stroke:#000000;stroke-width:2.35431623;stroke-linecap:butt;stroke-linejoin:miter;stroke-miterlimit:4;stroke-dasharray:none;stroke-opacity:1"
           d="m -929.90487,170.65658 0,750"
           id="path3799"
           inkscape:connector-curvature="0" />
        <path
           inkscape:connector-curvature="0"
           id="path3801"
           d="m -1074.2341,170.65658 0,750"
           style="fill:#008000;fill-rule:evenodd;stroke:#000000;stroke-width:2.35431623;stroke-linecap:butt;stroke-linejoin:miter;stroke-miterlimit:4;stroke-dasharray:none;stroke-opacity:1" />
        <path
           inkscape:connector-curvature="0"
           id="path3895"
           d="m -785.57571,170.65658 0,750"
           style="fill:#008000;fill-rule:evenodd;stroke:#000000;stroke-width:2.35431623;stroke-linecap:butt;stroke-linejoin:miter;stroke-miterlimit:4;stroke-dasharray:none;stroke-opacity:1" />
        <path
           style="fill:#008000;fill-rule:evenodd;stroke:#000000;stroke-width:2.35431623;stroke-linecap:butt;stroke-linejoin:miter;stroke-miterlimit:4;stroke-dasharray:none;stroke-opacity:1"
           d="m -641.24655,170.65658 0,750"
           id="path3908"
           inkscape:connector-curvature="0" />
      </g>
      <g
         transform="translate(-694.67205,219.50467)"
         id="g3925"
         style="fill:#008000">
        <path
           inkscape:connector-curvature="0"
           id="path3813"
           d="m 369.26081,699.95713 -750,0"
           style="fill:#008000;fill-rule:evenodd;stroke:#000000;stroke-width:2.38968229;stroke-linecap:butt;stroke-linejoin:miter;stroke-miterlimit:4;stroke-dasharray:none;stroke-opacity:1" />
        <path
           style="fill:#008000;fill-rule:evenodd;stroke:#000000;stroke-width:2.38968229;stroke-linecap:butt;stroke-linejoin:miter;stroke-miterlimit:4;stroke-dasharray:none;stroke-opacity:1"
           d="m 369.26081,550.43506 -750,0"
           id="path3815"
           inkscape:connector-curvature="0" />
        <path
           style="fill:#008000;fill-rule:evenodd;stroke:#000000;stroke-width:2.38968229;stroke-linecap:butt;stroke-linejoin:miter;stroke-miterlimit:4;stroke-dasharray:none;stroke-opacity:1"
           d="m 369.26081,101.86878 -750,0"
           id="path3819"
           inkscape:connector-curvature="0" />
        <path
           inkscape:connector-curvature="0"
           id="path3897"
           d="m 369.26081,251.39087 -750,0"
           style="fill:#008000;fill-rule:evenodd;stroke:#000000;stroke-width:2.38968229;stroke-linecap:butt;stroke-linejoin:miter;stroke-miterlimit:4;stroke-dasharray:none;stroke-opacity:1" />
        <path
           inkscape:connector-curvature="0"
           id="path3899"
           d="m 369.26081,-47.653315 -750,0"
           style="fill:#008000;fill-rule:evenodd;stroke:#000000;stroke-width:2.38968229;stroke-linecap:butt;stroke-linejoin:miter;stroke-miterlimit:4;stroke-dasharray:none;stroke-opacity:1" />
        <path
           style="fill:#008000;fill-rule:evenodd;stroke:#000000;stroke-width:2.38968229;stroke-linecap:butt;stroke-linejoin:miter;stroke-miterlimit:4;stroke-dasharray:none;stroke-opacity:1"
           d="m 369.26081,400.91297 -750,0"
           id="path3923"
           inkscape:connector-curvature="0" />
      </g>
    </g>
    <g
       id="g4205"
       transform="translate(0,-419.61515)">
      <g
         id="g4193">
        <text
           xml:space="preserve"
           style="font-style:normal;font-weight:normal;font-size:32.24549103px;line-height:125%;font-family:sans-serif;letter-spacing:0px;word-spacing:0px;fill:#000000;fill-opacity:1;stroke:none;stroke-width:1px;stroke-linecap:butt;stroke-linejoin:miter;stroke-opacity:1"
           x="-883.42645"
           y="691.07684"
           id="text3851-2"
           sodipodi:linespacing="125%"><tspan
             sodipodi:role="line"
             id="tspan3853-5"
             x="-883.42645"
             y="691.07684"
             style="font-size:64.49098206px">1</tspan></text>
        <text
           xml:space="preserve"
           style="font-style:normal;font-weight:normal;font-size:32.24549103px;line-height:125%;font-family:sans-serif;letter-spacing:0px;word-spacing:0px;fill:#000000;fill-opacity:1;stroke:none;stroke-width:1px;stroke-linecap:butt;stroke-linejoin:miter;stroke-opacity:1"
           x="-733.41724"
           y="691.07684"
           id="text3851-0"
           sodipodi:linespacing="125%"><tspan
             sodipodi:role="line"
             id="tspan3853-8"
             x="-733.41724"
             y="691.07684"
             style="font-size:64.49098206px">1</tspan></text>
        <text
           xml:space="preserve"
           style="font-style:normal;font-weight:normal;font-size:32.24549103px;line-height:125%;font-family:sans-serif;letter-spacing:0px;word-spacing:0px;fill:#000000;fill-opacity:1;stroke:none;stroke-width:1px;stroke-linecap:butt;stroke-linejoin:miter;stroke-opacity:1"
           x="-583.40802"
           y="691.07684"
           id="text3851-6"
           sodipodi:linespacing="125%"><tspan
             sodipodi:role="line"
             id="tspan3853-7"
             x="-583.40802"
             y="691.07684"
             style="font-size:64.49098206px">1</tspan></text>
        <text
           xml:space="preserve"
           style="font-style:normal;font-weight:normal;font-size:32.24549103px;line-height:125%;font-family:sans-serif;letter-spacing:0px;word-spacing:0px;fill:#000000;fill-opacity:1;stroke:none;stroke-width:1px;stroke-linecap:butt;stroke-linejoin:miter;stroke-opacity:1"
           x="-433.3988"
           y="691.07684"
           id="text3851-06"
           sodipodi:linespacing="125%"><tspan
             sodipodi:role="line"
             id="tspan3853-9"
             x="-433.3988"
             y="691.07684"
             style="font-size:64.49098206px">1</tspan></text>
        <text
           xml:space="preserve"
           style="font-style:normal;font-weight:normal;font-size:32.24549103px;line-height:125%;font-family:sans-serif;letter-spacing:0px;word-spacing:0px;fill:#000000;fill-opacity:1;stroke:none;stroke-width:1px;stroke-linecap:butt;stroke-linejoin:miter;stroke-opacity:1"
           x="-1033.4357"
           y="691.07684"
           id="text3851-14"
           sodipodi:linespacing="125%"><tspan
             sodipodi:role="line"
             id="tspan3853-86"
             x="-1033.4357"
             y="691.07684"
             style="font-size:64.49098206px">1</tspan></text>
      </g>
    </g>
    <g
       id="g4218"
       transform="translate(0,-275.99345)">
      <g
         id="g4220">
        <text
           sodipodi:linespacing="125%"
           id="text4222"
           y="691.07684"
           x="-883.42645"
           style="font-style:normal;font-weight:normal;font-size:32.24549103px;line-height:125%;font-family:sans-serif;letter-spacing:0px;word-spacing:0px;fill:#000000;fill-opacity:1;stroke:none;stroke-width:1px;stroke-linecap:butt;stroke-linejoin:miter;stroke-opacity:1"
           xml:space="preserve"><tspan
             style="font-size:64.49098206px"
             y="691.07684"
             x="-883.42645"
             id="tspan4224"
             sodipodi:role="line">1</tspan></text>
        <text
           sodipodi:linespacing="125%"
           id="text4226"
           y="691.07684"
           x="-733.41724"
           style="font-style:normal;font-weight:normal;font-size:32.24549103px;line-height:125%;font-family:sans-serif;letter-spacing:0px;word-spacing:0px;fill:#000000;fill-opacity:1;stroke:none;stroke-width:1px;stroke-linecap:butt;stroke-linejoin:miter;stroke-opacity:1"
           xml:space="preserve"><tspan
             style="font-size:64.49098206px"
             y="691.07684"
             x="-733.41724"
             id="tspan4228"
             sodipodi:role="line">1</tspan></text>
        <text
           sodipodi:linespacing="125%"
           id="text4230"
           y="691.07684"
           x="-583.40802"
           style="font-style:normal;font-weight:normal;font-size:32.24549103px;line-height:125%;font-family:sans-serif;letter-spacing:0px;word-spacing:0px;fill:#000000;fill-opacity:1;stroke:none;stroke-width:1px;stroke-linecap:butt;stroke-linejoin:miter;stroke-opacity:1"
           xml:space="preserve"><tspan
             style="font-size:64.49098206px"
             y="691.07684"
             x="-583.40802"
             id="tspan4232"
             sodipodi:role="line">1</tspan></text>
        <text
           sodipodi:linespacing="125%"
           id="text4234"
           y="691.07684"
           x="-433.3988"
           style="font-style:normal;font-weight:normal;font-size:32.24549103px;line-height:125%;font-family:sans-serif;letter-spacing:0px;word-spacing:0px;fill:#000000;fill-opacity:1;stroke:none;stroke-width:1px;stroke-linecap:butt;stroke-linejoin:miter;stroke-opacity:1"
           xml:space="preserve"><tspan
             style="font-size:64.49098206px"
             y="691.07684"
             x="-433.3988"
             id="tspan4236"
             sodipodi:role="line">1</tspan></text>
        <text
           sodipodi:linespacing="125%"
           id="text4238"
           y="691.07684"
           x="-1033.4357"
           style="font-style:normal;font-weight:normal;font-size:32.24549103px;line-height:125%;font-family:sans-serif;letter-spacing:0px;word-spacing:0px;fill:#000000;fill-opacity:1;stroke:none;stroke-width:1px;stroke-linecap:butt;stroke-linejoin:miter;stroke-opacity:1"
           xml:space="preserve"><tspan
             style="font-size:64.49098206px"
             y="691.07684"
             x="-1033.4357"
             id="tspan4240"
             sodipodi:role="line">1</tspan></text>
      </g>
    </g>
    <g
       id="g4242"
       transform="translate(0,-132.37174)">
      <g
         id="g4244">
        <text
           xml:space="preserve"
           style="font-style:normal;font-weight:normal;font-size:32.24549103px;line-height:125%;font-family:sans-serif;letter-spacing:0px;word-spacing:0px;fill:#000000;fill-opacity:1;stroke:none;stroke-width:1px;stroke-linecap:butt;stroke-linejoin:miter;stroke-opacity:1"
           x="-883.42645"
           y="691.07684"
           id="text4246"
           sodipodi:linespacing="125%"><tspan
             sodipodi:role="line"
             id="tspan4248"
             x="-883.42645"
             y="691.07684"
             style="font-size:64.49098206px">1</tspan></text>
        <text
           xml:space="preserve"
           style="font-style:normal;font-weight:normal;font-size:32.24549103px;line-height:125%;font-family:sans-serif;letter-spacing:0px;word-spacing:0px;fill:#000000;fill-opacity:1;stroke:none;stroke-width:1px;stroke-linecap:butt;stroke-linejoin:miter;stroke-opacity:1"
           x="-733.41724"
           y="691.07684"
           id="text4250"
           sodipodi:linespacing="125%"><tspan
             sodipodi:role="line"
             id="tspan4252"
             x="-733.41724"
             y="691.07684"
             style="font-size:64.49098206px">1</tspan></text>
        <text
           xml:space="preserve"
           style="font-style:normal;font-weight:normal;font-size:32.24549103px;line-height:125%;font-family:sans-serif;letter-spacing:0px;word-spacing:0px;fill:#000000;fill-opacity:1;stroke:none;stroke-width:1px;stroke-linecap:butt;stroke-linejoin:miter;stroke-opacity:1"
           x="-583.40802"
           y="691.07684"
           id="text4254"
           sodipodi:linespacing="125%"><tspan
             sodipodi:role="line"
             id="tspan4256"
             x="-583.40802"
             y="691.07684"
             style="font-size:64.49098206px">1</tspan></text>
        <text
           xml:space="preserve"
           style="font-style:normal;font-weight:normal;font-size:32.24549103px;line-height:125%;font-family:sans-serif;letter-spacing:0px;word-spacing:0px;fill:#000000;fill-opacity:1;stroke:none;stroke-width:1px;stroke-linecap:butt;stroke-linejoin:miter;stroke-opacity:1"
           x="-433.3988"
           y="691.07684"
           id="text4258"
           sodipodi:linespacing="125%"><tspan
             sodipodi:role="line"
             id="tspan4260"
             x="-433.3988"
             y="691.07684"
             style="font-size:64.49098206px">1</tspan></text>
        <text
           xml:space="preserve"
           style="font-style:normal;font-weight:normal;font-size:32.24549103px;line-height:125%;font-family:sans-serif;letter-spacing:0px;word-spacing:0px;fill:#000000;fill-opacity:1;stroke:none;stroke-width:1px;stroke-linecap:butt;stroke-linejoin:miter;stroke-opacity:1"
           x="-1033.4357"
           y="691.07684"
           id="text4262"
           sodipodi:linespacing="125%"><tspan
             sodipodi:role="line"
             id="tspan4264"
             x="-1033.4357"
             y="691.07684"
             style="font-size:64.49098206px">1</tspan></text>
      </g>
    </g>
    <g
       transform="translate(0,11.249961)"
       id="g4410">
      <g
         id="g4412">
        <text
           sodipodi:linespacing="125%"
           id="text4414"
           y="691.07684"
           x="-883.42645"
           style="font-style:normal;font-weight:normal;font-size:32.24549103px;line-height:125%;font-family:sans-serif;letter-spacing:0px;word-spacing:0px;fill:#000000;fill-opacity:1;stroke:none;stroke-width:1px;stroke-linecap:butt;stroke-linejoin:miter;stroke-opacity:1"
           xml:space="preserve"><tspan
             style="font-size:64.49098206px"
             y="691.07684"
             x="-883.42645"
             id="tspan4416"
             sodipodi:role="line">1</tspan></text>
        <text
           sodipodi:linespacing="125%"
           id="text4418"
           y="691.07684"
           x="-733.41724"
           style="font-style:normal;font-weight:normal;font-size:32.24549103px;line-height:125%;font-family:sans-serif;letter-spacing:0px;word-spacing:0px;fill:#000000;fill-opacity:1;stroke:none;stroke-width:1px;stroke-linecap:butt;stroke-linejoin:miter;stroke-opacity:1"
           xml:space="preserve"><tspan
             style="font-size:64.49098206px"
             y="691.07684"
             x="-733.41724"
             id="tspan4420"
             sodipodi:role="line">1</tspan></text>
        <text
           sodipodi:linespacing="125%"
           id="text4422"
           y="691.07684"
           x="-583.40802"
           style="font-style:normal;font-weight:normal;font-size:32.24549103px;line-height:125%;font-family:sans-serif;letter-spacing:0px;word-spacing:0px;fill:#000000;fill-opacity:1;stroke:none;stroke-width:1px;stroke-linecap:butt;stroke-linejoin:miter;stroke-opacity:1"
           xml:space="preserve"><tspan
             style="font-size:64.49098206px"
             y="691.07684"
             x="-583.40802"
             id="tspan4424"
             sodipodi:role="line">1</tspan></text>
        <text
           sodipodi:linespacing="125%"
           id="text4426"
           y="691.07684"
           x="-433.3988"
           style="font-style:normal;font-weight:normal;font-size:32.24549103px;line-height:125%;font-family:sans-serif;letter-spacing:0px;word-spacing:0px;fill:#000000;fill-opacity:1;stroke:none;stroke-width:1px;stroke-linecap:butt;stroke-linejoin:miter;stroke-opacity:1"
           xml:space="preserve"><tspan
             style="font-size:64.49098206px"
             y="691.07684"
             x="-433.3988"
             id="tspan4428"
             sodipodi:role="line">1</tspan></text>
        <text
           sodipodi:linespacing="125%"
           id="text4430"
           y="691.07684"
           x="-1033.4357"
           style="font-style:normal;font-weight:normal;font-size:32.24549103px;line-height:125%;font-family:sans-serif;letter-spacing:0px;word-spacing:0px;fill:#000000;fill-opacity:1;stroke:none;stroke-width:1px;stroke-linecap:butt;stroke-linejoin:miter;stroke-opacity:1"
           xml:space="preserve"><tspan
             style="font-size:64.49098206px"
             y="691.07684"
             x="-1033.4357"
             id="tspan4432"
             sodipodi:role="line">1</tspan></text>
      </g>
    </g>
    <g
       id="g4434"
       transform="translate(0,154.87171)">
      <g
         id="g4436">
        <text
           xml:space="preserve"
           style="font-style:normal;font-weight:normal;font-size:32.24549103px;line-height:125%;font-family:sans-serif;letter-spacing:0px;word-spacing:0px;fill:#000000;fill-opacity:1;stroke:none;stroke-width:1px;stroke-linecap:butt;stroke-linejoin:miter;stroke-opacity:1"
           x="-883.42645"
           y="691.07684"
           id="text4438"
           sodipodi:linespacing="125%"><tspan
             sodipodi:role="line"
             id="tspan4440"
             x="-883.42645"
             y="691.07684"
             style="font-size:64.49098206px">1</tspan></text>
        <text
           xml:space="preserve"
           style="font-style:normal;font-weight:normal;font-size:32.24549103px;line-height:125%;font-family:sans-serif;letter-spacing:0px;word-spacing:0px;fill:#000000;fill-opacity:1;stroke:none;stroke-width:1px;stroke-linecap:butt;stroke-linejoin:miter;stroke-opacity:1"
           x="-733.41724"
           y="691.07684"
           id="text4442"
           sodipodi:linespacing="125%"><tspan
             sodipodi:role="line"
             id="tspan4444"
             x="-733.41724"
             y="691.07684"
             style="font-size:64.49098206px">1</tspan></text>
        <text
           xml:space="preserve"
           style="font-style:normal;font-weight:normal;font-size:32.24549103px;line-height:125%;font-family:sans-serif;letter-spacing:0px;word-spacing:0px;fill:#000000;fill-opacity:1;stroke:none;stroke-width:1px;stroke-linecap:butt;stroke-linejoin:miter;stroke-opacity:1"
           x="-583.40802"
           y="691.07684"
           id="text4446"
           sodipodi:linespacing="125%"><tspan
             sodipodi:role="line"
             id="tspan4448"
             x="-583.40802"
             y="691.07684"
             style="font-size:64.49098206px">1</tspan></text>
        <text
           xml:space="preserve"
           style="font-style:normal;font-weight:normal;font-size:32.24549103px;line-height:125%;font-family:sans-serif;letter-spacing:0px;word-spacing:0px;fill:#000000;fill-opacity:1;stroke:none;stroke-width:1px;stroke-linecap:butt;stroke-linejoin:miter;stroke-opacity:1"
           x="-433.3988"
           y="691.07684"
           id="text4450"
           sodipodi:linespacing="125%"><tspan
             sodipodi:role="line"
             id="tspan4452"
             x="-433.3988"
             y="691.07684"
             style="font-size:64.49098206px">1</tspan></text>
        <text
           xml:space="preserve"
           style="font-style:normal;font-weight:normal;font-size:32.24549103px;line-height:125%;font-family:sans-serif;letter-spacing:0px;word-spacing:0px;fill:#000000;fill-opacity:1;stroke:none;stroke-width:1px;stroke-linecap:butt;stroke-linejoin:miter;stroke-opacity:1"
           x="-1033.4357"
           y="691.07684"
           id="text4454"
           sodipodi:linespacing="125%"><tspan
             sodipodi:role="line"
             id="tspan4456"
             x="-1033.4357"
             y="691.07684"
             style="font-size:64.49098206px">1</tspan></text>
      </g>
    </g>
  </g>
</svg>
